<?xml version="1.0" standalone="no"?><!DOCTYPE svg PUBLIC "-//W3C//DTD SVG 1.1//EN" "http://www.w3.org/Graphics/SVG/1.1/DTD/svg11.dtd"><svg t="1619449995607" class="icon" viewBox="0 0 1024 1024" version="1.1" xmlns="http://www.w3.org/2000/svg" p-id="3779" xmlns:xlink="http://www.w3.org/1999/xlink" width="200" height="200"><defs><style type="text/css"></style></defs><path d="M725.333333 213.333333v64h21.312H234.666667v469.333334h512V511.978667L810.666667 512v-64.042667V746.666667a64 64 0 0 1-64 64H234.666667a64 64 0 0 1-64-64V277.333333a64 64 0 0 1 64-64h490.666666z m105.152 41.6l45.696 44.8-315.626666 322.090667-156.842667-161.365333 45.909333-44.608 111.125334 114.346666L830.485333 254.933333z m-41.173333-25.301333c0.896 0.789333 1.749333 1.6 2.581333 2.432l-2.56 2.581333v-5.013333z" p-id="3780"></path></svg>