<?xml version="1.0" encoding="utf-8"?>
<!-- Generator: Adobe Illustrator 16.0.0, SVG Export Plug-In . SVG Version: 6.00 Build 0)  -->
<!DOCTYPE svg PUBLIC "-//W3C//DTD SVG 1.1//EN" "http://www.w3.org/Graphics/SVG/1.1/DTD/svg11.dtd">
<svg version="1.1" id="春分" xmlns="http://www.w3.org/2000/svg" xmlns:xlink="http://www.w3.org/1999/xlink" x="0px" y="0px"
	 width="200.014px" height="200.012px" viewBox="0 463.867 200.014 200.012" enable-background="new 0 463.867 200.014 200.012"
	 xml:space="preserve">
<path fill="#C63640" d="M21.57,535.933l4.544-12.879l8.082,6.438c0,0,10.102-4.672,19.193-18.813s22.222-31.311,47.475-41.414
	c0,0-5.05,13.135,0,17.172c5.052,4.041,23.233,8.083,31.313,3.031c0,0,14.146,11.108,14.146,23.229c0,0,4.039,10.104,12.118,10.104
	c8.082,0,9.345,16.664,9.345,21.716l11.364-6.313l6.316-4.546c0,0-2.273,18.688-7.831,33.69
	c-4.202,11.342,16.163,46.365-4.039,65.556c-20.204,19.192-65.158,30.812-98.995,23.234
	C41.073,648.632-12.776,627.854,21.57,535.933z"/>
<path opacity="0.3" fill="#E8A752" d="M39.208,563.961l3.697-6.937l6.576,3.469c0,0,8.219-2.517,15.615-10.133
	c7.397-7.615,18.081-16.863,38.627-22.305c0,0-4.107,7.074,0,9.249c4.111,2.177,36.988,7.615,36.988,14.144
	c0,0,30.463,25.857,25.939,33.938c-3.418,6.109-14.904,30.523-31.342,40.859c-16.44,10.338-25.422,6.537-52.953,2.456
	C55.076,624.659,11.263,613.468,39.208,563.961z"/>
<g>
	<path fill="#FFFFFF" d="M74.8,582.961c1.429,8.644-7.102,15.863-15.863,15.863c-8.76,0-15.862-7.103-15.862-15.863
		s11.735-15.862,20.496-15.862S73.176,573.135,74.8,582.961z"/>
	<path fill="#231815" d="M62.16,585.766c-0.362,1.07-1.523,1.643-2.592,1.281l0,0c-1.069-0.362-1.642-1.524-1.279-2.593l0.954-2.814
		c0.361-1.069,1.523-1.642,2.592-1.279l0,0c1.068,0.361,1.641,1.523,1.279,2.591L62.16,585.766z"/>
</g>
<g>
	<path fill="#FFFFFF" d="M120.316,582.961c-1.429,8.644,7.102,15.863,15.862,15.863s15.863-7.103,15.863-15.863
		s-11.735-15.862-20.496-15.862S121.939,573.135,120.316,582.961z"/>
	<path fill="#231815" d="M132.12,585.766c0.362,1.07,1.522,1.643,2.592,1.281l0,0c1.068-0.362,1.642-1.524,1.278-2.593l-0.953-2.814
		c-0.362-1.069-1.523-1.642-2.592-1.279l0,0c-1.069,0.361-1.642,1.523-1.28,2.591L132.12,585.766z"/>
</g>
<path fill="#C63640" d="M39.497,495.271c-5.228,5.075-13.258,10.549-10.965,14.705c2.293,4.153,10.072,5.598,10.463-0.874
	c0.393-6.471,0.893-13.626,2.34-15.225"/>
<path fill="#C63640" d="M48.741,488.113c-2.612,2.535-6.625,5.27-5.479,7.347c1.145,2.076,5.032,2.797,5.228-0.437
	c0.196-3.233,0.445-6.808,1.169-7.606"/>
<path fill="#C63640" d="M153.632,497.866c4.729,2.525,11.573,4.883,10.661,7.965c-0.911,3.081-6.313,5.227-7.776,1.036
	c-1.464-4.187-3.132-8.808-4.475-9.633"/>
</svg>
