<?xml version="1.0" encoding="utf-8"?>
<!-- Generator: Adobe Illustrator 16.0.0, SVG Export Plug-In . SVG Version: 6.00 Build 0)  -->
<!DOCTYPE svg PUBLIC "-//W3C//DTD SVG 1.1//EN" "http://www.w3.org/Graphics/SVG/1.1/DTD/svg11.dtd">
<svg version="1.1" id="春分" xmlns="http://www.w3.org/2000/svg" xmlns:xlink="http://www.w3.org/1999/xlink" x="0px" y="0px"
	 width="200.014px" height="200.012px" viewBox="243 463.867 200.014 200.012" enable-background="new 243 463.867 200.014 200.012"
	 xml:space="preserve">
<g>
	<g>
		<rect x="337.743" y="590.318" fill="#967E66" width="8.655" height="70.267"/>
		<polygon fill="#967E66" points="345.814,636.112 340.502,629.279 350.537,621.475 355.18,625.452 		"/>
	</g>
	<rect x="337.743" y="590.725" opacity="0.7" fill="#776352" width="2.759" height="69.86"/>
</g>
<g>
	<g>
		<path fill="#231815" d="M368.962,479.83c-1.121-10.822-15.341-8.435-27.152-7.483c-10.088,0.814-23.876-5.354-26.913,7.289
			c-2.334,6.035,2.75,44.673,2.75,44.673c0,9.414,4.068,17.041,9.087,17.041h30.057c5.022,0,9.09-7.627,9.09-17.041
			C365.88,524.309,371.034,499.843,368.962,479.83z"/>
		<path fill="#CC97C3" d="M317.08,519.525l49.459-0.109c0,0-0.416,14.549-1.449,14.818c-1.034,0.272-46.105-0.723-46.693-0.811
			C317.81,533.335,317.29,523.713,317.08,519.525z"/>
	</g>
	<ellipse fill="#231815" cx="341.867" cy="539.466" rx="60.663" ry="11.076"/>
</g>
<g>
	<g>
		<path fill="#93A2BF" d="M338.715,595.373c0,0-17.953-8.579-20.097-7.023c-2.147,1.555-4.262,22.101-0.888,25.314
			c3.375,3.209,21.826-8.456,21.826-8.456"/>
		<g>
			<path fill="#6F83A3" d="M337.944,600.218c0,0-8.563-1.829-9.56-0.982C327.389,600.083,337.944,600.218,337.944,600.218z"/>
			<path fill="#6F83A3" d="M337.944,600.972c0,0-11.344,1.828-12.661,0.98C323.964,601.104,337.944,600.972,337.944,600.972z"/>
		</g>
	</g>
	<g>
		<path fill="#93A2BF" d="M344.59,605.639c0,0,19.489,11.231,22.941,7.94c3.451-3.289,0.816-23.781-1.454-25.285
			c-2.271-1.505-20.175,7.228-20.175,7.228"/>
		<g>
			<path fill="#6F83A3" d="M346.786,601.036c0,0,8.937-1.829,9.974-0.982C357.799,600.901,346.786,601.036,346.786,601.036z"/>
			<path fill="#6F83A3" d="M346.786,601.788c0,0,11.837,1.83,13.211,0.982C361.372,601.925,346.786,601.788,346.786,601.788z"/>
		</g>
	</g>
	<path fill="#6F83A3" d="M346.612,600.01c0,3.733,0.864,7.032-4.662,6.76c-5.766-0.286-4.881-3.026-4.881-6.76
		c0-3.734-0.663-5.444,4.771-5.427C348.408,594.605,346.612,596.275,346.612,600.01z"/>
</g>
<g>
	<path fill="#F2F2F2" d="M376.263,565.213c-2.242,13.9-15.47,25.413-34.554,25.413c-19.083,0-34.554-11.378-34.554-25.413
		c0-24.132-1.687-31.201,34.597-31.201C360.836,534.012,381.133,535.034,376.263,565.213z"/>
	<path fill="none" stroke="#231815" stroke-width="1.0632" stroke-miterlimit="10" d="M376.264,564.904
		c-2.242,13.9-15.47,25.414-34.554,25.414c-19.083,0-34.554-11.379-34.554-25.414c0-24.132-1.687-31.201,34.597-31.201
		C360.837,533.703,381.135,534.726,376.264,564.904z"/>
	<g>
		<path fill="#FFFFFF" stroke="#231815" stroke-width="0.4464" stroke-miterlimit="10" d="M312.83,571.764
			c0,0,25.141-11.313,56.996,0.128c0,0-2.766,13.226-25.901,13.433C343.925,585.324,317.026,587.239,312.83,571.764z"/>
		
			<line fill="none" stroke="#231815" stroke-width="0.4573" stroke-miterlimit="10" x1="325.842" y1="568.071" x2="324.364" y2="582.845"/>
		
			<line fill="none" stroke="#231815" stroke-width="0.5145" stroke-miterlimit="10" x1="341.329" y1="566.583" x2="341.329" y2="585.398"/>
		
			<line fill="none" stroke="#231815" stroke-width="0.4453" stroke-miterlimit="10" x1="358.169" y1="568.465" x2="359.235" y2="582.505"/>
	</g>
</g>
<g>
	<ellipse fill="#231815" cx="323.829" cy="551.288" rx="2.148" ry="1.949"/>
	<ellipse fill="#231815" cx="358.826" cy="551.288" rx="2.148" ry="1.949"/>
</g>
<g>
	
		<line fill="#FFFFFF" stroke="#231815" stroke-width="0.4161" stroke-miterlimit="10" x1="358.702" y1="573.212" x2="400.137" y2="581.105"/>
	
		<rect x="399.07" y="575.272" transform="matrix(0.992 0.1265 -0.1265 0.992 76.74 -46.3269)" fill="#C63640" width="7.973" height="11.327"/>
</g>
</svg>
